<svg width="25" height="23" viewBox="0 0 25 23" fill="none" xmlns="http://www.w3.org/2000/svg">
<path opacity="0.3" d="M22.1111 1.40278C21.8333 0.583334 21.0556 0 20.1389 0H4.86111C3.94444 0 3.18056 0.583334 2.88889 1.40278L0 9.72222V20.8333C0 21.5972 0.625 22.2222 1.38889 22.2222H2.77778C3.54167 22.2222 4.16667 21.5972 4.16667 20.8333V19.4444H20.8333V20.8333C20.8333 21.5972 21.4583 22.2222 22.2222 22.2222H23.6111C24.375 22.2222 25 21.5972 25 20.8333V9.72222L22.1111 1.40278ZM4.86111 15.2778C3.70833 15.2778 2.77778 14.3472 2.77778 13.1944C2.77778 12.0417 3.70833 11.1111 4.86111 11.1111C6.01389 11.1111 6.94444 12.0417 6.94444 13.1944C6.94444 14.3472 6.01389 15.2778 4.86111 15.2778ZM20.1389 15.2778C18.9861 15.2778 18.0556 14.3472 18.0556 13.1944C18.0556 12.0417 18.9861 11.1111 20.1389 11.1111C21.2917 11.1111 22.2222 12.0417 22.2222 13.1944C22.2222 14.3472 21.2917 15.2778 20.1389 15.2778ZM2.77778 8.33333L4.86111 2.08333H20.1389L22.2222 8.33333H2.77778Z" fill="#979797"/>
</svg>
