<svg width="25" height="27" viewBox="0 0 25 27" fill="none" xmlns="http://www.w3.org/2000/svg">
<path opacity="0.3" d="M16.6667 12.5V4.16667L12.5 0L8.33333 4.16667V6.94444H0V26.3889H25V12.5H16.6667ZM5.55556 23.6111H2.77778V20.8333H5.55556V23.6111ZM5.55556 18.0556H2.77778V15.2778H5.55556V18.0556ZM5.55556 12.5H2.77778V9.72222H5.55556V12.5ZM13.8889 23.6111H11.1111V20.8333H13.8889V23.6111ZM13.8889 18.0556H11.1111V15.2778H13.8889V18.0556ZM13.8889 12.5H11.1111V9.72222H13.8889V12.5ZM13.8889 6.94444H11.1111V4.16667H13.8889V6.94444ZM22.2222 23.6111H19.4444V20.8333H22.2222V23.6111ZM22.2222 18.0556H19.4444V15.2778H22.2222V18.0556Z" fill="#979797"/>
</svg>
